<svg xmlns="http://www.w3.org/2000/svg" width="1080" height="900" viewBox="0 0 1080 900">
  <defs>
    <style>
      .cls-1 {
        fill: #f18836;
        stroke: #f18836;
        stroke-width: 1px;
        fill-rule: evenodd;
      }
    </style>
  </defs>
  <path id="Forma_1" data-name="Forma 1" class="cls-1" d="M115.616,27.876h350.91s49.326,7.942,51.713,38.286,3.694,257.559,3.694,257.559V494.266S531.858,592.7,477.607,685.7,315.081,831.877,315.081,831.877s-69.915,36.22-195.772,41.766-103.426,0-103.426,0V727.461c52.72,2.115,104.4-10.645,147.752-38.286,24.688-15.739,51.713-36.545,62.794-59.169s12.313-48.727,18.469-73.091H137.778l-81.263-3.48s-37.9-4.386-40.632-41.766,0-174.027,0-174.027v-160.1l3.694-80.052S35.584,36,115.616,27.876Z"/>
  <path id="Forma_1_copiar" data-name="Forma 1 copiar" class="cls-1" d="M658.634,27.876H1009.54s49.33,7.942,51.72,38.286,3.69,257.559,3.69,257.559V494.266s9.93,98.436-44.32,191.429S858.1,831.877,858.1,831.877s-69.914,36.22-195.771,41.766-103.426,0-103.426,0V727.461c52.72,2.115,104.4-10.645,147.752-38.286,24.687-15.739,51.713-36.545,62.794-59.169s12.313-48.727,18.469-73.091H680.8l-81.263-3.48s-37.9-4.386-40.632-41.766,0-174.027,0-174.027v-160.1L562.6,97.486S578.6,36,658.634,27.876Z"/>
</svg>
